<?xml version="1.0" encoding="UTF-8"?>
<!DOCTYPE svg PUBLIC "-//W3C//DTD SVG 1.1//EN" "http://www.w3.org/Graphics/SVG/1.1/DTD/svg11.dtd">
<svg xmlns="http://www.w3.org/2000/svg" xmlns:xlink="http://www.w3.org/1999/xlink" version="1.1" width="122px" height="122px" viewBox="-0.5 -0.5 122 122" style="background-color: rgb(255, 255, 255);"><defs/><g><ellipse cx="60.58" cy="60.58" rx="59.575" ry="59.575" fill="#b9dc00" stroke="#000000" stroke-width="2" transform="rotate(-90,60.58,60.58)" pointer-events="all"/><path d="M 93.8 59.87 L 120.2 59.92 L 120.15 60.58" fill="none" stroke="#000000" stroke-width="2" stroke-miterlimit="10" pointer-events="stroke"/><path d="M 26.7 59.87 L 1 59.92 L 1 60.58" fill="none" stroke="#000000" stroke-width="2" stroke-miterlimit="10" pointer-events="stroke"/><path d="M 60.25 78.77 L 60.32 102.72 L 102.7 102.7" fill="none" stroke="#000000" stroke-width="2" stroke-miterlimit="10" pointer-events="stroke"/><path d="M 60.25 40.97 L 60.32 18.4 L 102.7 18.45" fill="none" stroke="#000000" stroke-width="2" stroke-miterlimit="10" pointer-events="stroke"/><path d="M 28.99 93.42 L 91.51 93.42 C 92.34 93.36 93.1 92.65 93.52 91.55 C 93.95 90.44 94 89.07 93.64 87.9 L 61.67 27.25 C 60.81 26.32 59.68 26.32 58.83 27.25 L 26.86 87.9 C 26.5 89.07 26.54 90.44 26.97 91.55 C 27.4 92.65 28.15 93.36 28.99 93.42 Z" fill="#ffffff" stroke="#000000" stroke-width="2" stroke-miterlimit="10" transform="rotate(-270,60.25,59.87)" pointer-events="all"/></g></svg>